<?xml version="1.0" standalone="no"?>
<!DOCTYPE svg PUBLIC "-//W3C//DTD SVG 20010904//EN"
 "http://www.w3.org/TR/2001/REC-SVG-20010904/DTD/svg10.dtd">
<svg version="1.0" xmlns="http://www.w3.org/2000/svg"
 width="700.000000pt" height="700.000000pt" viewBox="0 0 700.000000 700.000000"
 preserveAspectRatio="xMidYMid meet">
<metadata>
Created by potrace 1.14, written by Peter Selinger 2001-2017
</metadata>
<g transform="translate(0.000000,700.000000) scale(0.100000,-0.100000)"
fill="#000000" stroke="none">
<path d="M799 6975 c-350 -122 -657 -430 -775 -777 l-24 -72 0 -2591 0 -2591
24 -70 c126 -370 437 -671 820 -793 202 -65 54 -62 2703 -58 2656 3 2428 -3
2628 63 363 119 679 429 801 786 l24 72 0 2591 0 2591 -24 72 c-119 349 -432
661 -784 781 l-62 21 -2633 -1 -2632 0 -66 -24z m2421 -1320 l0 -245 -310 0
-310 0 0 -755 0 -755 905 0 905 0 0 755 0 755 -310 0 -310 0 0 245 0 245 1290
0 1290 0 -2 -242 -3 -243 -307 -3 -308 -2 0 -1960 0 -1960 310 0 310 0 0 -245
0 -245 -1290 0 -1290 0 0 245 0 245 310 0 310 0 -2 932 -3 933 -902 3 -903 2
0 -935 0 -935 310 0 310 0 0 -245 0 -245 -1290 0 -1290 0 0 245 0 245 310 0
310 0 0 1960 0 1960 -310 0 -310 0 0 245 0 245 1290 0 1290 0 0 -245z"/>
</g>
</svg>
